<svg width="150" height="52" viewBox="0 0 150 52" fill="none" xmlns="http://www.w3.org/2000/svg">
<path d="M26.4595 20.64H28.6995L32.8755 32H30.6035L29.5475 29.168H25.5795L24.5395 32H22.2675L26.4595 20.64ZM29.1475 27.616L27.5795 22.928L25.9475 27.616H29.1475ZM33.527 33.632C33.9217 33.7387 34.2417 33.792 34.487 33.792C34.775 33.792 35.0043 33.6693 35.175 33.424C35.3563 33.1893 35.559 32.7147 35.783 32L32.471 23.616H34.695L36.951 29.808L38.935 23.616H40.983L37.463 33.664C37.271 34.24 36.9243 34.7147 36.423 35.088C35.9323 35.472 35.3243 35.664 34.599 35.664C34.247 35.664 33.8897 35.6053 33.527 35.488V33.632ZM42.0679 28.864V23.616H44.2119V28.4C44.2119 29.6907 44.6759 30.336 45.6039 30.336C46.0199 30.336 46.4199 30.2133 46.8039 29.968C47.1985 29.712 47.5185 29.328 47.7639 28.816V23.616H49.9079V29.6C49.9079 29.8347 49.9452 30 50.0199 30.096C50.0945 30.1813 50.2279 30.2347 50.4199 30.256V32C50.2065 32.0427 50.0252 32.0693 49.8759 32.08C49.7372 32.0907 49.6092 32.096 49.4919 32.096C49.1079 32.096 48.7932 32.0107 48.5479 31.84C48.3132 31.6587 48.1745 31.4133 48.1319 31.104L48.0839 30.432C47.7105 31.008 47.2305 31.44 46.6439 31.728C46.0572 32.016 45.4119 32.16 44.7079 32.16C43.8439 32.16 43.1879 31.8827 42.7399 31.328C42.2919 30.7627 42.0679 29.9413 42.0679 28.864ZM51.5265 27.808C51.5265 27.008 51.6865 26.2773 52.0065 25.616C52.3265 24.9547 52.7692 24.432 53.3345 24.048C53.8998 23.664 54.5452 23.472 55.2705 23.472C55.8892 23.472 56.4438 23.6267 56.9345 23.936C57.4358 24.2347 57.8252 24.6187 58.1025 25.088V20.32H60.2465V29.6C60.2465 29.8347 60.2838 30 60.3585 30.096C60.4332 30.1813 60.5612 30.2347 60.7425 30.256V32C60.3585 32.0747 60.0545 32.112 59.8305 32.112C59.4465 32.112 59.1265 32.016 58.8705 31.824C58.6252 31.632 58.4865 31.3813 58.4545 31.072L58.4225 30.544C58.1132 31.0667 57.6918 31.4667 57.1585 31.744C56.6358 32.0213 56.0865 32.16 55.5105 32.16C54.7318 32.16 54.0438 31.968 53.4465 31.584C52.8492 31.1893 52.3798 30.6667 52.0385 30.016C51.6972 29.3547 51.5265 28.6187 51.5265 27.808ZM58.1025 28.928V26.928C57.9318 26.4587 57.6385 26.0693 57.2225 25.76C56.8065 25.4507 56.3798 25.296 55.9425 25.296C55.5052 25.296 55.1212 25.4187 54.7905 25.664C54.4598 25.8987 54.2038 26.2133 54.0225 26.608C53.8412 26.992 53.7505 27.408 53.7505 27.856C53.7505 28.3147 53.8518 28.736 54.0545 29.12C54.2572 29.4933 54.5292 29.792 54.8705 30.016C55.2225 30.2293 55.6225 30.336 56.0705 30.336C56.4758 30.336 56.8758 30.2027 57.2705 29.936C57.6758 29.6693 57.9532 29.3333 58.1025 28.928ZM61.775 29.52C61.775 28.976 61.9243 28.5013 62.223 28.096C62.5323 27.68 62.959 27.36 63.503 27.136C64.047 26.912 64.671 26.8 65.375 26.8C65.727 26.8 66.0843 26.832 66.447 26.896C66.8097 26.9493 67.1243 27.0293 67.391 27.136V26.688C67.391 26.1547 67.231 25.744 66.911 25.456C66.6017 25.168 66.1377 25.024 65.519 25.024C65.0603 25.024 64.623 25.104 64.207 25.264C63.791 25.424 63.3537 25.6587 62.895 25.968L62.207 24.56C62.7617 24.1973 63.327 23.9253 63.903 23.744C64.4897 23.5627 65.103 23.472 65.743 23.472C66.9377 23.472 67.8657 23.7707 68.527 24.368C69.199 24.9653 69.535 25.8187 69.535 26.928V29.6C69.535 29.8347 69.5723 30 69.647 30.096C69.7217 30.1813 69.855 30.2347 70.047 30.256V32C69.855 32.0427 69.679 32.0693 69.519 32.08C69.3697 32.1013 69.2417 32.112 69.135 32.112C68.7083 32.112 68.383 32.016 68.159 31.824C67.935 31.632 67.8017 31.3973 67.759 31.12L67.711 30.688C67.3377 31.168 66.879 31.536 66.335 31.792C65.8017 32.0373 65.2523 32.16 64.687 32.16C64.1217 32.16 63.6203 32.048 63.183 31.824C62.7457 31.5893 62.399 31.2747 62.143 30.88C61.8977 30.4747 61.775 30.0213 61.775 29.52ZM66.991 29.952C67.2577 29.696 67.391 29.4507 67.391 29.216V28.368C66.8363 28.144 66.2763 28.032 65.711 28.032C65.1457 28.032 64.687 28.1547 64.335 28.4C63.983 28.6347 63.807 28.9493 63.807 29.344C63.807 29.664 63.935 29.952 64.191 30.208C64.447 30.464 64.815 30.592 65.295 30.592C65.615 30.592 65.9243 30.5333 66.223 30.416C66.5323 30.2987 66.7883 30.144 66.991 29.952ZM75.5903 32V20.64H80.6143C81.1369 20.64 81.6169 20.7467 82.0543 20.96C82.5023 21.1733 82.8863 21.4613 83.2063 21.824C83.5369 22.1867 83.7876 22.592 83.9583 23.04C84.1396 23.488 84.2303 23.9467 84.2303 24.416C84.2303 25.1413 84.0436 25.808 83.6703 26.416C83.3076 27.024 82.8116 27.4613 82.1823 27.728L84.7743 32H82.3423L80.0063 28.192H77.7983V32H75.5903ZM77.7983 26.256H80.5663C80.9823 26.256 81.3236 26.08 81.5903 25.728C81.8676 25.3653 82.0063 24.928 82.0063 24.416C82.0063 24.064 81.9316 23.7493 81.7823 23.472C81.6329 23.1947 81.4409 22.976 81.2063 22.816C80.9823 22.656 80.7369 22.576 80.4703 22.576H77.7983V26.256ZM85.3063 29.52C85.3063 28.976 85.4556 28.5013 85.7543 28.096C86.0636 27.68 86.4903 27.36 87.0343 27.136C87.5783 26.912 88.2023 26.8 88.9062 26.8C89.2583 26.8 89.6156 26.832 89.9783 26.896C90.3409 26.9493 90.6556 27.0293 90.9223 27.136V26.688C90.9223 26.1547 90.7623 25.744 90.4423 25.456C90.1329 25.168 89.6689 25.024 89.0503 25.024C88.5916 25.024 88.1543 25.104 87.7383 25.264C87.3223 25.424 86.8849 25.6587 86.4263 25.968L85.7383 24.56C86.2929 24.1973 86.8583 23.9253 87.4343 23.744C88.0209 23.5627 88.6343 23.472 89.2743 23.472C90.4689 23.472 91.3969 23.7707 92.0583 24.368C92.7303 24.9653 93.0663 25.8187 93.0663 26.928V29.6C93.0663 29.8347 93.1036 30 93.1783 30.096C93.2529 30.1813 93.3863 30.2347 93.5783 30.256V32C93.3863 32.0427 93.2103 32.0693 93.0503 32.08C92.9009 32.1013 92.7729 32.112 92.6663 32.112C92.2396 32.112 91.9143 32.016 91.6903 31.824C91.4663 31.632 91.3329 31.3973 91.2903 31.12L91.2423 30.688C90.8689 31.168 90.4103 31.536 89.8663 31.792C89.3329 32.0373 88.7836 32.16 88.2183 32.16C87.6529 32.16 87.1516 32.048 86.7143 31.824C86.2769 31.5893 85.9303 31.2747 85.6743 30.88C85.4289 30.4747 85.3063 30.0213 85.3063 29.52ZM90.5223 29.952C90.7889 29.696 90.9223 29.4507 90.9223 29.216V28.368C90.3676 28.144 89.8076 28.032 89.2423 28.032C88.6769 28.032 88.2183 28.1547 87.8663 28.4C87.5143 28.6347 87.3383 28.9493 87.3383 29.344C87.3383 29.664 87.4663 29.952 87.7223 30.208C87.9783 30.464 88.3463 30.592 88.8263 30.592C89.1463 30.592 89.4556 30.5333 89.7543 30.416C90.0636 30.2987 90.3196 30.144 90.5223 29.952ZM89.9783 22.64L88.6023 22.224L89.4663 20.32H91.4663L89.9783 22.64ZM100.094 32.16C99.4324 32.16 98.8564 32.0107 98.3658 31.712C97.8751 31.4133 97.4911 31.0187 97.2138 30.528V35.408H95.0698V23.616H96.9418V25.056C97.2511 24.5653 97.6511 24.1813 98.1418 23.904C98.6431 23.616 99.2084 23.472 99.8378 23.472C100.595 23.472 101.267 23.6693 101.854 24.064C102.44 24.448 102.904 24.9707 103.246 25.632C103.587 26.2827 103.758 27.0027 103.758 27.792C103.758 28.6133 103.598 29.3547 103.278 30.016C102.968 30.6667 102.536 31.1893 101.982 31.584C101.438 31.968 100.808 32.16 100.094 32.16ZM99.3738 30.336C99.8111 30.336 100.19 30.2187 100.51 29.984C100.84 29.7387 101.096 29.424 101.278 29.04C101.47 28.6453 101.566 28.2293 101.566 27.792C101.566 27.3227 101.464 26.9013 101.262 26.528C101.059 26.144 100.782 25.8453 100.43 25.632C100.088 25.408 99.6938 25.296 99.2458 25.296C98.8404 25.296 98.4351 25.4293 98.0298 25.696C97.6244 25.9627 97.3524 26.2987 97.2138 26.704V28.672C97.4058 29.1413 97.6991 29.536 98.0938 29.856C98.4884 30.176 98.9151 30.336 99.3738 30.336ZM105.21 22.448V20.32H107.354V22.448H105.21ZM105.21 32V23.616H107.354V32H105.21ZM108.777 27.808C108.777 27.008 108.937 26.2773 109.257 25.616C109.577 24.9547 110.019 24.432 110.585 24.048C111.15 23.664 111.795 23.472 112.521 23.472C113.139 23.472 113.694 23.6267 114.185 23.936C114.686 24.2347 115.075 24.6187 115.353 25.088V20.32H117.497V29.6C117.497 29.8347 117.534 30 117.609 30.096C117.683 30.1813 117.811 30.2347 117.993 30.256V32C117.609 32.0747 117.305 32.112 117.081 32.112C116.697 32.112 116.377 32.016 116.121 31.824C115.875 31.632 115.737 31.3813 115.705 31.072L115.673 30.544C115.363 31.0667 114.942 31.4667 114.409 31.744C113.886 32.0213 113.337 32.16 112.761 32.16C111.982 32.16 111.294 31.968 110.697 31.584C110.099 31.1893 109.63 30.6667 109.289 30.016C108.947 29.3547 108.777 28.6187 108.777 27.808ZM115.353 28.928V26.928C115.182 26.4587 114.889 26.0693 114.473 25.76C114.057 25.4507 113.63 25.296 113.193 25.296C112.755 25.296 112.371 25.4187 112.041 25.664C111.71 25.8987 111.454 26.2133 111.273 26.608C111.091 26.992 111.001 27.408 111.001 27.856C111.001 28.3147 111.102 28.736 111.305 29.12C111.507 29.4933 111.779 29.792 112.121 30.016C112.473 30.2293 112.873 30.336 113.321 30.336C113.726 30.336 114.126 30.2027 114.521 29.936C114.926 29.6693 115.203 29.3333 115.353 28.928ZM119.025 29.52C119.025 28.976 119.174 28.5013 119.473 28.096C119.782 27.68 120.209 27.36 120.753 27.136C121.297 26.912 121.921 26.8 122.625 26.8C122.977 26.8 123.334 26.832 123.697 26.896C124.06 26.9493 124.374 27.0293 124.641 27.136V26.688C124.641 26.1547 124.481 25.744 124.161 25.456C123.852 25.168 123.388 25.024 122.769 25.024C122.31 25.024 121.873 25.104 121.457 25.264C121.041 25.424 120.604 25.6587 120.145 25.968L119.457 24.56C120.012 24.1973 120.577 23.9253 121.153 23.744C121.74 23.5627 122.353 23.472 122.993 23.472C124.188 23.472 125.116 23.7707 125.777 24.368C126.449 24.9653 126.785 25.8187 126.785 26.928V29.6C126.785 29.8347 126.822 30 126.897 30.096C126.972 30.1813 127.105 30.2347 127.297 30.256V32C127.105 32.0427 126.929 32.0693 126.769 32.08C126.62 32.1013 126.492 32.112 126.385 32.112C125.958 32.112 125.633 32.016 125.409 31.824C125.185 31.632 125.052 31.3973 125.009 31.12L124.961 30.688C124.588 31.168 124.129 31.536 123.585 31.792C123.052 32.0373 122.502 32.16 121.937 32.16C121.372 32.16 120.87 32.048 120.433 31.824C119.996 31.5893 119.649 31.2747 119.393 30.88C119.148 30.4747 119.025 30.0213 119.025 29.52ZM124.241 29.952C124.508 29.696 124.641 29.4507 124.641 29.216V28.368C124.086 28.144 123.526 28.032 122.961 28.032C122.396 28.032 121.937 28.1547 121.585 28.4C121.233 28.6347 121.057 28.9493 121.057 29.344C121.057 29.664 121.185 29.952 121.441 30.208C121.697 30.464 122.065 30.592 122.545 30.592C122.865 30.592 123.174 30.5333 123.473 30.416C123.782 30.2987 124.038 30.144 124.241 29.952Z" fill="white"/>
</svg>
