<svg width="150" height="64" viewBox="0 0 150 64" fill="none" xmlns="http://www.w3.org/2000/svg">
<path d="M32.3403 14V6.916L29.4143 12.292H28.4903L25.5503 6.916V14H23.9823V4.06H25.6623L28.9523 10.136L32.2423 4.06H33.9223V14H32.3403ZM35.3539 11.858C35.3539 11.3913 35.4846 10.9853 35.7459 10.64C36.0072 10.2853 36.3712 10.0147 36.8379 9.828C37.3139 9.632 37.8599 9.534 38.4759 9.534C38.8026 9.534 39.1339 9.562 39.4699 9.618C39.8152 9.66467 40.1186 9.73467 40.3799 9.828V9.366C40.3799 8.85267 40.2259 8.45133 39.9179 8.162C39.6099 7.87267 39.1666 7.728 38.5879 7.728C38.1866 7.728 37.7992 7.798 37.4259 7.938C37.0526 8.078 36.6652 8.28333 36.2639 8.554L35.7459 7.518C36.2312 7.20067 36.7166 6.96267 37.2019 6.804C37.6966 6.636 38.2146 6.552 38.7559 6.552C39.7359 6.552 40.5059 6.81333 41.0659 7.336C41.6352 7.84933 41.9199 8.582 41.9199 9.534V12.264C41.9199 12.4413 41.9479 12.5673 42.0039 12.642C42.0692 12.7167 42.1766 12.7587 42.3259 12.768V14C42.1859 14.028 42.0599 14.0467 41.9479 14.056C41.8359 14.0653 41.7426 14.07 41.6679 14.07C41.3319 14.07 41.0799 13.9907 40.9119 13.832C40.7532 13.664 40.6599 13.4773 40.6319 13.272L40.5899 12.852C40.2726 13.2627 39.8666 13.58 39.3719 13.804C38.8772 14.028 38.3779 14.14 37.8739 14.14C37.3886 14.14 36.9546 14.042 36.5719 13.846C36.1892 13.6407 35.8906 13.3653 35.6759 13.02C35.4612 12.6747 35.3539 12.2873 35.3539 11.858ZM40.0159 12.306C40.2586 12.0633 40.3799 11.8347 40.3799 11.62V10.78C39.8292 10.5747 39.2692 10.472 38.6999 10.472C38.1399 10.472 37.6826 10.5887 37.3279 10.822C36.9826 11.046 36.8099 11.3493 36.8099 11.732C36.8099 12.0493 36.9359 12.3433 37.1879 12.614C37.4492 12.8753 37.8226 13.006 38.3079 13.006C38.6346 13.006 38.9519 12.9407 39.2599 12.81C39.5679 12.6793 39.8199 12.5113 40.0159 12.306ZM47.9043 8.008C47.3069 8.02667 46.7749 8.16667 46.3083 8.428C45.8509 8.68 45.5243 9.044 45.3283 9.52V14H43.7883V6.678H45.2163V8.316C45.4683 7.812 45.7996 7.41067 46.2103 7.112C46.6209 6.804 47.0549 6.636 47.5123 6.608C47.5963 6.608 47.6709 6.608 47.7363 6.608C47.8016 6.608 47.8576 6.61267 47.9043 6.622V8.008ZM52.2195 14.14C51.4635 14.14 50.8009 13.9673 50.2315 13.622C49.6622 13.2673 49.2189 12.8007 48.9015 12.222C48.5842 11.6433 48.4255 11.0133 48.4255 10.332C48.4255 9.65067 48.5795 9.02533 48.8875 8.456C49.2049 7.87733 49.6435 7.41533 50.2035 7.07C50.7729 6.72467 51.4449 6.552 52.2195 6.552C52.9755 6.552 53.6242 6.72 54.1655 7.056C54.7162 7.38267 55.1269 7.82133 55.3975 8.372L53.8995 8.848C53.7315 8.54 53.4935 8.302 53.1855 8.134C52.8869 7.95667 52.5555 7.868 52.1915 7.868C51.7809 7.868 51.4075 7.97533 51.0715 8.19C50.7449 8.39533 50.4835 8.68467 50.2875 9.058C50.1009 9.43133 50.0075 9.856 50.0075 10.332C50.0075 10.808 50.1055 11.2327 50.3015 11.606C50.5069 11.9793 50.7729 12.278 51.0995 12.502C51.4355 12.7167 51.8042 12.824 52.2055 12.824C52.5789 12.824 52.9335 12.726 53.2695 12.53C53.6055 12.334 53.8295 12.096 53.9415 11.816L55.4535 12.264C55.2109 12.8147 54.8049 13.2673 54.2355 13.622C53.6662 13.9673 52.9942 14.14 52.2195 14.14ZM56.1899 11.858C56.1899 11.3913 56.3205 10.9853 56.5819 10.64C56.8432 10.2853 57.2072 10.0147 57.6739 9.828C58.1499 9.632 58.6959 9.534 59.3119 9.534C59.6385 9.534 59.9699 9.562 60.3059 9.618C60.6512 9.66467 60.9545 9.73467 61.2159 9.828V9.366C61.2159 8.85267 61.0619 8.45133 60.7539 8.162C60.4459 7.87267 60.0025 7.728 59.4239 7.728C59.0225 7.728 58.6352 7.798 58.2619 7.938C57.8885 8.078 57.5012 8.28333 57.0999 8.554L56.5819 7.518C57.0672 7.20067 57.5525 6.96267 58.0379 6.804C58.5325 6.636 59.0505 6.552 59.5919 6.552C60.5719 6.552 61.3419 6.81333 61.9019 7.336C62.4712 7.84933 62.7559 8.582 62.7559 9.534V12.264C62.7559 12.4413 62.7839 12.5673 62.8399 12.642C62.9052 12.7167 63.0125 12.7587 63.1619 12.768V14C63.0219 14.028 62.8959 14.0467 62.7839 14.056C62.6719 14.0653 62.5785 14.07 62.5039 14.07C62.1679 14.07 61.9159 13.9907 61.7479 13.832C61.5892 13.664 61.4959 13.4773 61.4679 13.272L61.4259 12.852C61.1085 13.2627 60.7025 13.58 60.2079 13.804C59.7132 14.028 59.2139 14.14 58.7099 14.14C58.2245 14.14 57.7905 14.042 57.4079 13.846C57.0252 13.6407 56.7265 13.3653 56.5119 13.02C56.2972 12.6747 56.1899 12.2873 56.1899 11.858ZM60.8519 12.306C61.0945 12.0633 61.2159 11.8347 61.2159 11.62V10.78C60.6652 10.5747 60.1052 10.472 59.5359 10.472C58.9759 10.472 58.5185 10.5887 58.1639 10.822C57.8185 11.046 57.6459 11.3493 57.6459 11.732C57.6459 12.0493 57.7719 12.3433 58.0239 12.614C58.2852 12.8753 58.6585 13.006 59.1439 13.006C59.4705 13.006 59.7879 12.9407 60.0959 12.81C60.4039 12.6793 60.6559 12.5113 60.8519 12.306ZM64.1622 10.346C64.1622 9.646 64.3022 9.01133 64.5822 8.442C64.8715 7.86333 65.2635 7.406 65.7582 7.07C66.2529 6.72467 66.8222 6.552 67.4662 6.552C68.0262 6.552 68.5302 6.69667 68.9782 6.986C69.4355 7.27533 69.7902 7.63467 70.0422 8.064V3.78H71.5822V12.264C71.5822 12.4413 71.6149 12.5673 71.6802 12.642C71.7455 12.7167 71.8529 12.7587 72.0022 12.768V14C71.7129 14.0467 71.4889 14.07 71.3302 14.07C71.0409 14.07 70.7935 13.9907 70.5882 13.832C70.3922 13.664 70.2895 13.4587 70.2802 13.216L70.2662 12.67C69.9862 13.1367 69.6082 13.5007 69.1322 13.762C68.6562 14.014 68.1615 14.14 67.6482 14.14C66.9762 14.14 66.3742 13.9673 65.8422 13.622C65.3195 13.2767 64.9089 12.8193 64.6102 12.25C64.3115 11.6713 64.1622 11.0367 64.1622 10.346ZM70.0422 11.368V9.45C69.9302 9.15133 69.7622 8.88533 69.5382 8.652C69.3142 8.40933 69.0575 8.218 68.7682 8.078C68.4882 7.938 68.2082 7.868 67.9282 7.868C67.4895 7.868 67.1069 7.98933 66.7802 8.232C66.4629 8.46533 66.2109 8.77333 66.0242 9.156C65.8469 9.53867 65.7582 9.94467 65.7582 10.374C65.7582 10.822 65.8562 11.2327 66.0522 11.606C66.2575 11.9793 66.5329 12.278 66.8782 12.502C67.2235 12.7167 67.6109 12.824 68.0402 12.824C68.3015 12.824 68.5722 12.7633 68.8522 12.642C69.1415 12.5113 69.3935 12.3387 69.6082 12.124C69.8229 11.9 69.9675 11.648 70.0422 11.368ZM76.8283 14.14C76.0629 14.14 75.3956 13.9673 74.8263 13.622C74.2663 13.2673 73.8323 12.8053 73.5243 12.236C73.2163 11.6573 73.0623 11.0273 73.0623 10.346C73.0623 9.66467 73.2163 9.03933 73.5243 8.47C73.8416 7.89133 74.2803 7.42933 74.8403 7.084C75.4096 6.72933 76.0723 6.552 76.8283 6.552C77.5843 6.552 78.2423 6.72933 78.8023 7.084C79.3716 7.42933 79.8103 7.89133 80.1183 8.47C80.4356 9.03933 80.5943 9.66467 80.5943 10.346C80.5943 11.0273 80.4403 11.6573 80.1323 12.236C79.8243 12.8053 79.3856 13.2673 78.8163 13.622C78.2563 13.9673 77.5936 14.14 76.8283 14.14ZM74.6443 10.36C74.6443 10.8267 74.7423 11.2467 74.9383 11.62C75.1343 11.9933 75.3956 12.2873 75.7223 12.502C76.0489 12.7167 76.4176 12.824 76.8283 12.824C77.2296 12.824 77.5936 12.7167 77.9203 12.502C78.2563 12.278 78.5223 11.9793 78.7183 11.606C78.9143 11.2327 79.0123 10.8127 79.0123 10.346C79.0123 9.87933 78.9143 9.45933 78.7183 9.086C78.5223 8.71267 78.2563 8.41867 77.9203 8.204C77.5936 7.98 77.2296 7.868 76.8283 7.868C76.4269 7.868 76.0583 7.98 75.7223 8.204C75.3956 8.41867 75.1343 8.71733 74.9383 9.1C74.7423 9.47333 74.6443 9.89333 74.6443 10.36ZM89.5351 8.008C88.9378 8.02667 88.4058 8.16667 87.9391 8.428C87.4818 8.68 87.1551 9.044 86.9591 9.52V14H85.4191V6.678H86.8471V8.316C87.0991 7.812 87.4305 7.41067 87.8411 7.112C88.2518 6.804 88.6858 6.636 89.1431 6.608C89.2271 6.608 89.3018 6.608 89.3671 6.608C89.4325 6.608 89.4885 6.61267 89.5351 6.622V8.008ZM90.1098 11.858C90.1098 11.3913 90.2404 10.9853 90.5018 10.64C90.7631 10.2853 91.1271 10.0147 91.5938 9.828C92.0698 9.632 92.6158 9.534 93.2318 9.534C93.5584 9.534 93.8898 9.562 94.2258 9.618C94.5711 9.66467 94.8744 9.73467 95.1358 9.828V9.366C95.1358 8.85267 94.9818 8.45133 94.6738 8.162C94.3658 7.87267 93.9224 7.728 93.3438 7.728C92.9424 7.728 92.5551 7.798 92.1818 7.938C91.8084 8.078 91.4211 8.28333 91.0198 8.554L90.5018 7.518C90.9871 7.20067 91.4724 6.96267 91.9578 6.804C92.4524 6.636 92.9704 6.552 93.5118 6.552C94.4918 6.552 95.2618 6.81333 95.8218 7.336C96.3911 7.84933 96.6758 8.582 96.6758 9.534V12.264C96.6758 12.4413 96.7038 12.5673 96.7598 12.642C96.8251 12.7167 96.9324 12.7587 97.0818 12.768V14C96.9418 14.028 96.8158 14.0467 96.7038 14.056C96.5918 14.0653 96.4984 14.07 96.4238 14.07C96.0878 14.07 95.8358 13.9907 95.6678 13.832C95.5091 13.664 95.4158 13.4773 95.3878 13.272L95.3458 12.852C95.0284 13.2627 94.6224 13.58 94.1278 13.804C93.6331 14.028 93.1338 14.14 92.6298 14.14C92.1444 14.14 91.7104 14.042 91.3278 13.846C90.9451 13.6407 90.6464 13.3653 90.4318 13.02C90.2171 12.6747 90.1098 12.2873 90.1098 11.858ZM94.7718 12.306C95.0144 12.0633 95.1358 11.8347 95.1358 11.62V10.78C94.5851 10.5747 94.0251 10.472 93.4558 10.472C92.8958 10.472 92.4384 10.5887 92.0838 10.822C91.7384 11.046 91.5658 11.3493 91.5658 11.732C91.5658 12.0493 91.6918 12.3433 91.9438 12.614C92.2051 12.8753 92.5784 13.006 93.0638 13.006C93.3904 13.006 93.7078 12.9407 94.0158 12.81C94.3238 12.6793 94.5758 12.5113 94.7718 12.306ZM94.0158 5.628L93.0078 5.32L93.8058 3.78H95.2758L94.0158 5.628ZM102.702 14.14C102.114 14.14 101.596 14 101.148 13.72C100.7 13.44 100.345 13.076 100.084 12.628V16.982H98.5441V6.678H99.9021V7.994C100.182 7.55533 100.546 7.20533 100.994 6.944C101.442 6.68267 101.941 6.552 102.492 6.552C103.164 6.552 103.757 6.72933 104.27 7.084C104.793 7.42933 105.203 7.89133 105.502 8.47C105.801 9.03933 105.95 9.66 105.95 10.332C105.95 11.0413 105.81 11.6853 105.53 12.264C105.25 12.8333 104.867 13.2907 104.382 13.636C103.897 13.972 103.337 14.14 102.702 14.14ZM102.198 12.824C102.637 12.824 103.015 12.7073 103.332 12.474C103.659 12.2313 103.911 11.9233 104.088 11.55C104.275 11.1673 104.368 10.7613 104.368 10.332C104.368 9.884 104.265 9.47333 104.06 9.1C103.864 8.72667 103.593 8.428 103.248 8.204C102.912 7.98 102.525 7.868 102.086 7.868C101.825 7.868 101.549 7.93333 101.26 8.064C100.98 8.19467 100.733 8.36733 100.518 8.582C100.303 8.79667 100.159 9.03933 100.084 9.31V11.228C100.271 11.676 100.555 12.054 100.938 12.362C101.33 12.67 101.75 12.824 102.198 12.824ZM107.335 5.474V3.78H108.875V5.474H107.335ZM107.335 14V6.678H108.875V14H107.335ZM110.264 10.346C110.264 9.646 110.404 9.01133 110.684 8.442C110.973 7.86333 111.365 7.406 111.86 7.07C112.354 6.72467 112.924 6.552 113.568 6.552C114.128 6.552 114.632 6.69667 115.08 6.986C115.537 7.27533 115.892 7.63467 116.144 8.064V3.78H117.684V12.264C117.684 12.4413 117.716 12.5673 117.782 12.642C117.847 12.7167 117.954 12.7587 118.104 12.768V14C117.814 14.0467 117.59 14.07 117.432 14.07C117.142 14.07 116.895 13.9907 116.69 13.832C116.494 13.664 116.391 13.4587 116.382 13.216L116.368 12.67C116.088 13.1367 115.71 13.5007 115.234 13.762C114.758 14.014 114.263 14.14 113.75 14.14C113.078 14.14 112.476 13.9673 111.944 13.622C111.421 13.2767 111.01 12.8193 110.712 12.25C110.413 11.6713 110.264 11.0367 110.264 10.346ZM116.144 11.368V9.45C116.032 9.15133 115.864 8.88533 115.64 8.652C115.416 8.40933 115.159 8.218 114.87 8.078C114.59 7.938 114.31 7.868 114.03 7.868C113.591 7.868 113.208 7.98933 112.882 8.232C112.564 8.46533 112.312 8.77333 112.126 9.156C111.948 9.53867 111.86 9.94467 111.86 10.374C111.86 10.822 111.958 11.2327 112.154 11.606C112.359 11.9793 112.634 12.278 112.98 12.502C113.325 12.7167 113.712 12.824 114.142 12.824C114.403 12.824 114.674 12.7633 114.954 12.642C115.243 12.5113 115.495 12.3387 115.71 12.124C115.924 11.9 116.069 11.648 116.144 11.368ZM122.93 14.14C122.164 14.14 121.497 13.9673 120.928 13.622C120.368 13.2673 119.934 12.8053 119.626 12.236C119.318 11.6573 119.164 11.0273 119.164 10.346C119.164 9.66467 119.318 9.03933 119.626 8.47C119.943 7.89133 120.382 7.42933 120.942 7.084C121.511 6.72933 122.174 6.552 122.93 6.552C123.686 6.552 124.344 6.72933 124.904 7.084C125.473 7.42933 125.912 7.89133 126.22 8.47C126.537 9.03933 126.696 9.66467 126.696 10.346C126.696 11.0273 126.542 11.6573 126.234 12.236C125.926 12.8053 125.487 13.2673 124.918 13.622C124.358 13.9673 123.695 14.14 122.93 14.14ZM120.746 10.36C120.746 10.8267 120.844 11.2467 121.04 11.62C121.236 11.9933 121.497 12.2873 121.824 12.502C122.15 12.7167 122.519 12.824 122.93 12.824C123.331 12.824 123.695 12.7167 124.022 12.502C124.358 12.278 124.624 11.9793 124.82 11.606C125.016 11.2327 125.114 10.8127 125.114 10.346C125.114 9.87933 125.016 9.45933 124.82 9.086C124.624 8.71267 124.358 8.41867 124.022 8.204C123.695 7.98 123.331 7.868 122.93 7.868C122.528 7.868 122.16 7.98 121.824 8.204C121.497 8.41867 121.236 8.71733 121.04 9.1C120.844 9.47333 120.746 9.89333 120.746 10.36Z" fill="white"/>
<rect x="2" y="21" width="146" height="41" rx="20" fill="white"/>
<path d="M74.8255 39.854V43H64.2695V39.854H67.9615V31.976C67.7535 32.236 67.3981 32.5133 66.8955 32.808C66.4101 33.1027 65.8728 33.354 65.2835 33.562C64.7115 33.77 64.2001 33.874 63.7495 33.874V30.624C64.0615 30.624 64.4341 30.5287 64.8675 30.338C65.3181 30.13 65.7601 29.8873 66.1935 29.61C66.6441 29.3327 67.0255 29.064 67.3375 28.804C67.6668 28.5267 67.8748 28.31 67.9615 28.154H71.5235V39.854H74.8255ZM90.1431 35.382C90.1431 36.9073 89.8485 38.268 89.2591 39.464C88.6871 40.6427 87.8898 41.57 86.8671 42.246C85.8618 42.922 84.7178 43.26 83.4351 43.26C82.1525 43.26 80.9998 42.922 79.9771 42.246C78.9718 41.57 78.1745 40.6427 77.5851 39.464C77.0131 38.268 76.7271 36.9073 76.7271 35.382C76.7271 33.8567 77.0131 32.5047 77.5851 31.326C78.1745 30.13 78.9718 29.194 79.9771 28.518C80.9998 27.8247 82.1525 27.478 83.4351 27.478C84.7178 27.478 85.8618 27.8247 86.8671 28.518C87.8898 29.194 88.6871 30.13 89.2591 31.326C89.8485 32.5047 90.1431 33.8567 90.1431 35.382ZM86.6331 35.382C86.6331 33.9953 86.3298 32.8687 85.7231 32.002C85.1338 31.118 84.3711 30.676 83.4351 30.676C82.4645 30.676 81.6845 31.118 81.0951 32.002C80.5058 32.8687 80.2111 33.9953 80.2111 35.382C80.2111 36.7687 80.5058 37.8953 81.0951 38.762C81.6845 39.6287 82.4645 40.062 83.4351 40.062C84.3711 40.062 85.1338 39.6287 85.7231 38.762C86.3298 37.8953 86.6331 36.7687 86.6331 35.382ZM106.114 35.382C106.114 36.9073 105.819 38.268 105.23 39.464C104.658 40.6427 103.86 41.57 102.838 42.246C101.832 42.922 100.688 43.26 99.4058 43.26C98.1232 43.26 96.9705 42.922 95.9478 42.246C94.9425 41.57 94.1452 40.6427 93.5558 39.464C92.9838 38.268 92.6978 36.9073 92.6978 35.382C92.6978 33.8567 92.9838 32.5047 93.5558 31.326C94.1452 30.13 94.9425 29.194 95.9478 28.518C96.9705 27.8247 98.1232 27.478 99.4058 27.478C100.688 27.478 101.832 27.8247 102.838 28.518C103.86 29.194 104.658 30.13 105.23 31.326C105.819 32.5047 106.114 33.8567 106.114 35.382ZM102.604 35.382C102.604 33.9953 102.3 32.8687 101.694 32.002C101.104 31.118 100.342 30.676 99.4058 30.676C98.4352 30.676 97.6552 31.118 97.0658 32.002C96.4765 32.8687 96.1818 33.9953 96.1818 35.382C96.1818 36.7687 96.4765 37.8953 97.0658 38.762C97.6552 39.6287 98.4352 40.062 99.4058 40.062C100.342 40.062 101.104 39.6287 101.694 38.762C102.3 37.8953 102.604 36.7687 102.604 35.382Z" fill="#FC518A"/>
<path d="M61 40.3588C61 41.306 60.7758 42.2033 60.334 43.0251C59.9192 43.7962 59.3184 44.4712 58.5958 44.9774C57.8763 45.4817 57.0412 45.8145 56.1814 45.9406C55.9119 45.9801 55.6424 46 55.374 46C54.7284 46 54.0882 45.8859 53.4624 45.6586C50.7047 44.6567 48.145 43.0251 46.06 40.94C43.9749 38.855 42.3433 36.2953 41.3414 33.5376C41.0195 32.6517 40.9246 31.7369 41.0594 30.8186C41.1855 29.9588 41.5183 29.1237 42.0226 28.4042C42.5288 27.6816 43.2038 27.0808 43.9749 26.666C44.7967 26.2242 45.694 26 46.6412 26C46.9361 26 47.1908 26.2059 47.2525 26.4941L48.2333 31.0721C48.2778 31.2791 48.2142 31.4951 48.0642 31.6447L46.3881 33.3212C47.9693 36.4648 50.5352 39.0307 53.6788 40.6119L55.3553 38.9358C55.5049 38.7858 55.7209 38.7222 55.9279 38.7667L60.5059 39.7475C60.7941 39.8092 61 40.0639 61 40.3588V40.3588Z" fill="#FC518A"/>
<path d="M45.1959 27.4453C44.2486 27.4453 43.3514 27.6695 42.5296 28.1112C42.3479 28.2089 42.1714 28.3171 42.0015 28.4351C42.0081 28.4245 42.0155 28.4144 42.0226 28.4042C42.5288 27.6816 43.2038 27.0808 43.9748 26.666C44.7967 26.2242 45.6939 26 46.6411 26C46.936 26 47.1907 26.2059 47.2524 26.4941L48.2333 31.0721C48.2778 31.2791 48.2141 31.4951 48.0641 31.6447L46.6189 33.09C46.7689 32.9404 46.8325 32.7243 46.788 32.5173L45.8072 27.9394C45.7455 27.6511 45.4908 27.4453 45.1959 27.4453V27.4453Z" fill="#FF96B9"/>
<path d="M53.679 40.6119L52.85 41.441C52.474 41.8169 51.8933 41.8907 51.4324 41.6257C48.9169 40.1794 46.8208 38.0833 45.3745 35.5678C45.1096 35.1069 45.1833 34.5262 45.5592 34.1502L46.3883 33.3212C47.9695 36.4648 50.5354 39.0308 53.679 40.6119Z" fill="#FF96B9"/>
<path d="M61.0001 40.3588C61.0001 41.306 60.7759 42.2032 60.3341 43.0251C59.9193 43.7961 59.3185 44.4711 58.5959 44.9773C58.5858 44.9844 58.5756 44.9918 58.5651 44.9984C58.683 44.8285 58.7912 44.6519 58.8889 44.4703C59.3306 43.6485 59.5549 42.7512 59.5549 41.804C59.5549 41.5091 59.349 41.2544 59.0607 41.1927L54.4828 40.2119C54.2758 40.1674 54.0598 40.231 53.9102 40.381L55.3554 38.9358C55.505 38.7858 55.721 38.7221 55.928 38.7666L60.506 39.7474C60.7943 39.8092 61.0001 40.0638 61.0001 40.3588V40.3588Z" fill="#FF96B9"/>
<path d="M53.6243 57V50.61H56.3063C56.5943 50.61 56.8583 50.67 57.0983 50.79C57.3443 50.91 57.5543 51.069 57.7283 51.267C57.9083 51.465 58.0463 51.687 58.1423 51.933C58.2383 52.179 58.2863 52.431 58.2863 52.689C58.2863 53.049 58.2053 53.388 58.0433 53.706C57.8813 54.024 57.6563 54.282 57.3683 54.48C57.0803 54.678 56.7443 54.777 56.3603 54.777H54.6323V57H53.6243ZM54.6323 53.886H56.2973C56.5793 53.886 56.8103 53.772 56.9903 53.544C57.1703 53.316 57.2603 53.031 57.2603 52.689C57.2603 52.455 57.2123 52.251 57.1163 52.077C57.0203 51.897 56.8943 51.756 56.7383 51.654C56.5883 51.552 56.4233 51.501 56.2433 51.501H54.6323V53.886ZM59.0607 55.173V52.293H60.0507V54.975C60.0507 55.821 60.3507 56.244 60.9507 56.244C61.2327 56.244 61.4997 56.157 61.7517 55.983C62.0037 55.803 62.1987 55.551 62.3367 55.227V52.293H63.3267V55.884C63.3267 55.998 63.3477 56.079 63.3897 56.127C63.4317 56.175 63.5007 56.202 63.5967 56.208V57C63.4947 57.018 63.4107 57.03 63.3447 57.036C63.2787 57.042 63.2157 57.045 63.1557 57.045C62.9757 57.045 62.8257 56.997 62.7057 56.901C62.5857 56.805 62.5167 56.676 62.4987 56.514L62.4807 56.046C62.2707 56.388 61.9977 56.649 61.6617 56.829C61.3257 57.003 60.9567 57.09 60.5547 57.09C60.0627 57.09 59.6907 56.928 59.4387 56.604C59.1867 56.28 59.0607 55.803 59.0607 55.173ZM64.5991 50.43H65.5891V55.641C65.5891 55.881 65.6251 56.034 65.6971 56.1C65.7691 56.166 65.8591 56.199 65.9671 56.199C66.0871 56.199 66.2011 56.187 66.3091 56.163C66.4171 56.139 66.5071 56.109 66.5791 56.073L66.7231 56.856C66.5791 56.916 66.4081 56.967 66.2101 57.009C66.0121 57.051 65.8351 57.072 65.6791 57.072C65.3431 57.072 65.0791 56.979 64.8871 56.793C64.6951 56.601 64.5991 56.337 64.5991 56.001V50.43ZM68.9711 57.09C68.5751 57.09 68.2001 57.024 67.8461 56.892C67.4921 56.76 67.1891 56.568 66.9371 56.316L67.3061 55.65C67.5761 55.89 67.8461 56.064 68.1161 56.172C68.3861 56.28 68.6591 56.334 68.9351 56.334C69.2111 56.334 69.4361 56.283 69.6101 56.181C69.7841 56.073 69.8711 55.917 69.8711 55.713C69.8711 55.569 69.8261 55.458 69.7361 55.38C69.6461 55.302 69.5141 55.239 69.3401 55.191C69.1721 55.143 68.9681 55.083 68.7281 55.011C68.3921 54.909 68.1101 54.804 67.8821 54.696C67.6541 54.582 67.4831 54.444 67.3691 54.282C67.2551 54.12 67.1981 53.913 67.1981 53.661C67.1981 53.205 67.3691 52.851 67.7111 52.599C68.0531 52.341 68.5001 52.212 69.0521 52.212C69.3941 52.212 69.7091 52.266 69.9971 52.374C70.2911 52.476 70.5491 52.638 70.7711 52.86L70.3481 53.517C69.9401 53.145 69.4901 52.959 68.9981 52.959C68.7821 52.959 68.5811 53.001 68.3951 53.085C68.2151 53.169 68.1251 53.325 68.1251 53.553C68.1251 53.745 68.2061 53.883 68.3681 53.967C68.5301 54.051 68.7701 54.141 69.0881 54.237C69.4481 54.345 69.7571 54.453 70.0151 54.561C70.2791 54.663 70.4801 54.798 70.6181 54.966C70.7621 55.128 70.8341 55.353 70.8341 55.641C70.8341 56.097 70.6631 56.454 70.3211 56.712C69.9791 56.964 69.5291 57.09 68.9711 57.09ZM73.851 57.09C73.365 57.09 72.939 56.979 72.573 56.757C72.207 56.535 71.922 56.241 71.718 55.875C71.514 55.503 71.412 55.098 71.412 54.66C71.412 54.216 71.514 53.808 71.718 53.436C71.922 53.064 72.207 52.767 72.573 52.545C72.939 52.323 73.368 52.212 73.86 52.212C74.352 52.212 74.778 52.326 75.138 52.554C75.498 52.776 75.774 53.07 75.966 53.436C76.164 53.802 76.263 54.195 76.263 54.615C76.263 54.765 76.254 54.885 76.236 54.975H72.465C72.483 55.251 72.558 55.494 72.69 55.704C72.828 55.908 72.999 56.07 73.203 56.19C73.413 56.304 73.641 56.361 73.887 56.361C74.151 56.361 74.4 56.295 74.634 56.163C74.868 56.031 75.03 55.857 75.12 55.641L75.966 55.884C75.804 56.238 75.534 56.529 75.156 56.757C74.784 56.979 74.349 57.09 73.851 57.09ZM72.438 54.318H75.282C75.258 54.048 75.18 53.811 75.048 53.607C74.916 53.397 74.745 53.235 74.535 53.121C74.331 53.001 74.103 52.941 73.851 52.941C73.605 52.941 73.377 53.001 73.167 53.121C72.963 53.235 72.795 53.397 72.663 53.607C72.531 53.811 72.456 54.048 72.438 54.318ZM78.9522 55.623C78.9522 55.323 79.0362 55.062 79.2042 54.84C79.3722 54.612 79.6062 54.438 79.9062 54.318C80.2122 54.192 80.5632 54.129 80.9592 54.129C81.1692 54.129 81.3822 54.147 81.5982 54.183C81.8202 54.213 82.0152 54.258 82.1832 54.318V54.021C82.1832 53.691 82.0842 53.433 81.8862 53.247C81.6882 53.061 81.4032 52.968 81.0312 52.968C80.7732 52.968 80.5242 53.013 80.2842 53.103C80.0442 53.193 79.7952 53.325 79.5372 53.499L79.2042 52.833C79.5162 52.629 79.8282 52.476 80.1402 52.374C80.4582 52.266 80.7912 52.212 81.1392 52.212C81.7692 52.212 82.2642 52.38 82.6242 52.716C82.9902 53.046 83.1732 53.517 83.1732 54.129V55.884C83.1732 55.998 83.1912 56.079 83.2272 56.127C83.2692 56.175 83.3382 56.202 83.4342 56.208V57C83.3442 57.018 83.2632 57.03 83.1912 57.036C83.1192 57.042 83.0592 57.045 83.0112 57.045C82.7952 57.045 82.6332 56.994 82.5252 56.892C82.4232 56.784 82.3632 56.664 82.3452 56.532L82.3182 56.262C82.1142 56.526 81.8532 56.73 81.5352 56.874C81.2172 57.018 80.8962 57.09 80.5722 57.09C80.2602 57.09 79.9812 57.027 79.7352 56.901C79.4892 56.769 79.2972 56.592 79.1592 56.37C79.0212 56.148 78.9522 55.899 78.9522 55.623ZM81.9492 55.911C82.1052 55.755 82.1832 55.608 82.1832 55.47V54.93C81.8292 54.798 81.4692 54.732 81.1032 54.732C80.7432 54.732 80.4492 54.807 80.2212 54.957C79.9992 55.101 79.8882 55.296 79.8882 55.542C79.8882 55.746 79.9692 55.935 80.1312 56.109C80.2992 56.277 80.5392 56.361 80.8512 56.361C81.0612 56.361 81.2652 56.319 81.4632 56.235C81.6612 56.151 81.8232 56.043 81.9492 55.911ZM86.1653 57.09C85.7573 57.09 85.3943 56.979 85.0763 56.757C84.7643 56.529 84.5213 56.232 84.3473 55.866C84.1733 55.494 84.0863 55.086 84.0863 54.642C84.0863 54.198 84.1823 53.793 84.3743 53.427C84.5723 53.055 84.8363 52.761 85.1663 52.545C85.5023 52.323 85.8803 52.212 86.3003 52.212C86.6603 52.212 86.9843 52.299 87.2723 52.473C87.5603 52.647 87.7913 52.872 87.9653 53.148V52.293H88.8383V58.917H87.8483V56.118C87.4523 56.766 86.8913 57.09 86.1653 57.09ZM86.5253 56.244C86.8193 56.244 87.0773 56.16 87.2993 55.992C87.5213 55.818 87.7043 55.602 87.8483 55.344V54.102C87.8063 53.916 87.7163 53.745 87.5783 53.589C87.4403 53.427 87.2753 53.298 87.0833 53.202C86.8973 53.106 86.7113 53.058 86.5253 53.058C86.2433 53.058 85.9943 53.136 85.7783 53.292C85.5683 53.442 85.4003 53.64 85.2743 53.886C85.1543 54.132 85.0943 54.393 85.0943 54.669C85.0943 54.957 85.1543 55.221 85.2743 55.461C85.4003 55.701 85.5683 55.893 85.7783 56.037C85.9943 56.175 86.2433 56.244 86.5253 56.244ZM89.9806 55.173V52.293H90.9706V54.975C90.9706 55.821 91.2706 56.244 91.8706 56.244C92.1526 56.244 92.4196 56.157 92.6716 55.983C92.9236 55.803 93.1186 55.551 93.2566 55.227V52.293H94.2466V55.884C94.2466 55.998 94.2676 56.079 94.3096 56.127C94.3516 56.175 94.4206 56.202 94.5166 56.208V57C94.4146 57.018 94.3306 57.03 94.2646 57.036C94.1986 57.042 94.1356 57.045 94.0756 57.045C93.8956 57.045 93.7456 56.997 93.6256 56.901C93.5056 56.805 93.4366 56.676 93.4186 56.514L93.4006 56.046C93.1906 56.388 92.9176 56.649 92.5816 56.829C92.2456 57.003 91.8766 57.09 91.4746 57.09C90.9826 57.09 90.6106 56.928 90.3586 56.604C90.1066 56.28 89.9806 55.803 89.9806 55.173ZM95.51 57V52.293H96.5V57H95.51ZM96.347 51.618L95.699 51.42L96.212 50.43H97.157L96.347 51.618Z" fill="#FC518A"/>
</svg>
