<svg width="150" height="64" viewBox="0 0 150 64" fill="none" xmlns="http://www.w3.org/2000/svg">
<path d="M45.9902 22.06C45.3822 22.06 44.8262 21.94 44.3222 21.7C43.8262 21.46 43.3982 21.136 43.0382 20.728C42.6782 20.312 42.3982 19.848 42.1982 19.336C42.0062 18.816 41.9102 18.284 41.9102 17.74C41.9102 17.172 42.0142 16.632 42.2222 16.12C42.4302 15.6 42.7182 15.14 43.0862 14.74C43.4542 14.332 43.8862 14.012 44.3822 13.78C44.8862 13.54 45.4302 13.42 46.0142 13.42C46.6222 13.42 47.1742 13.544 47.6702 13.792C48.1742 14.04 48.6022 14.372 48.9542 14.788C49.3142 15.204 49.5902 15.668 49.7822 16.18C49.9822 16.692 50.0822 17.216 50.0822 17.752C50.0822 18.32 49.9782 18.864 49.7702 19.384C49.5702 19.896 49.2862 20.356 48.9182 20.764C48.5502 21.164 48.1142 21.48 47.6102 21.712C47.1142 21.944 46.5742 22.06 45.9902 22.06ZM43.2782 17.74C43.2782 18.276 43.3902 18.784 43.6142 19.264C43.8382 19.736 44.1502 20.12 44.5502 20.416C44.9582 20.704 45.4422 20.848 46.0022 20.848C46.4262 20.848 46.8062 20.76 47.1422 20.584C47.4782 20.408 47.7622 20.172 47.9942 19.876C48.2262 19.572 48.4022 19.236 48.5222 18.868C48.6422 18.5 48.7022 18.124 48.7022 17.74C48.7022 17.204 48.5902 16.7 48.3662 16.228C48.1502 15.756 47.8382 15.376 47.4302 15.088C47.0222 14.792 46.5462 14.644 46.0022 14.644C45.5702 14.644 45.1862 14.732 44.8502 14.908C44.5142 15.084 44.2302 15.32 43.9982 15.616C43.7662 15.912 43.5862 16.244 43.4582 16.612C43.3382 16.98 43.2782 17.356 43.2782 17.74ZM54.7977 21.676C54.6297 21.756 54.3977 21.848 54.1017 21.952C53.8057 22.048 53.4897 22.096 53.1537 22.096C52.7377 22.096 52.3777 21.984 52.0737 21.76C51.7777 21.536 51.6297 21.172 51.6297 20.668V16.744H50.8017V15.724H51.6297V13.66H52.9497V15.724H54.3177V16.744H52.9497V20.248C52.9657 20.472 53.0337 20.636 53.1537 20.74C53.2817 20.836 53.4377 20.884 53.6217 20.884C53.8057 20.884 53.9817 20.852 54.1497 20.788C54.3177 20.724 54.4417 20.672 54.5217 20.632L54.7977 21.676ZM59.2399 16.864C58.7279 16.88 58.2719 17 57.8719 17.224C57.4799 17.44 57.1999 17.752 57.0319 18.16V22H55.7119V15.724H56.9359V17.128C57.1519 16.696 57.4359 16.352 57.7879 16.096C58.1399 15.832 58.5119 15.688 58.9039 15.664C58.9759 15.664 59.0399 15.664 59.0959 15.664C59.1519 15.664 59.1999 15.668 59.2399 15.676V16.864ZM59.7325 20.164C59.7325 19.764 59.8445 19.416 60.0685 19.12C60.2925 18.816 60.6045 18.584 61.0045 18.424C61.4125 18.256 61.8805 18.172 62.4085 18.172C62.6885 18.172 62.9725 18.196 63.2605 18.244C63.5565 18.284 63.8165 18.344 64.0405 18.424V18.028C64.0405 17.588 63.9085 17.244 63.6445 16.996C63.3805 16.748 63.0005 16.624 62.5045 16.624C62.1605 16.624 61.8285 16.684 61.5085 16.804C61.1885 16.924 60.8565 17.1 60.5125 17.332L60.0685 16.444C60.4845 16.172 60.9005 15.968 61.3165 15.832C61.7405 15.688 62.1845 15.616 62.6485 15.616C63.4885 15.616 64.1485 15.84 64.6285 16.288C65.1165 16.728 65.3605 17.356 65.3605 18.172V20.512C65.3605 20.664 65.3845 20.772 65.4325 20.836C65.4885 20.9 65.5805 20.936 65.7085 20.944V22C65.5885 22.024 65.4805 22.04 65.3845 22.048C65.2885 22.056 65.2085 22.06 65.1445 22.06C64.8565 22.06 64.6405 21.992 64.4965 21.856C64.3605 21.712 64.2805 21.552 64.2565 21.376L64.2205 21.016C63.9485 21.368 63.6005 21.64 63.1765 21.832C62.7525 22.024 62.3245 22.12 61.8925 22.12C61.4765 22.12 61.1045 22.036 60.7765 21.868C60.4485 21.692 60.1925 21.456 60.0085 21.16C59.8245 20.864 59.7325 20.532 59.7325 20.164ZM63.7285 20.548C63.9365 20.34 64.0405 20.144 64.0405 19.96V19.24C63.5685 19.064 63.0885 18.976 62.6005 18.976C62.1205 18.976 61.7285 19.076 61.4245 19.276C61.1285 19.468 60.9805 19.728 60.9805 20.056C60.9805 20.328 61.0885 20.58 61.3045 20.812C61.5285 21.036 61.8485 21.148 62.2645 21.148C62.5445 21.148 62.8165 21.092 63.0805 20.98C63.3445 20.868 63.5605 20.724 63.7285 20.548ZM69.1939 22.12C68.6659 22.12 68.1659 22.032 67.6939 21.856C67.2219 21.68 66.8179 21.424 66.4819 21.088L66.9739 20.2C67.3339 20.52 67.6939 20.752 68.0539 20.896C68.4139 21.04 68.7779 21.112 69.1459 21.112C69.5139 21.112 69.8139 21.044 70.0459 20.908C70.2779 20.764 70.3939 20.556 70.3939 20.284C70.3939 20.092 70.3339 19.944 70.2139 19.84C70.0939 19.736 69.9179 19.652 69.6859 19.588C69.4619 19.524 69.1899 19.444 68.8699 19.348C68.4219 19.212 68.0459 19.072 67.7419 18.928C67.4379 18.776 67.2099 18.592 67.0579 18.376C66.9059 18.16 66.8299 17.884 66.8299 17.548C66.8299 16.94 67.0579 16.468 67.5139 16.132C67.9699 15.788 68.5659 15.616 69.3019 15.616C69.7579 15.616 70.1779 15.688 70.5619 15.832C70.9539 15.968 71.2979 16.184 71.5939 16.48L71.0299 17.356C70.4859 16.86 69.8859 16.612 69.2299 16.612C68.9419 16.612 68.6739 16.668 68.4259 16.78C68.1859 16.892 68.0659 17.1 68.0659 17.404C68.0659 17.66 68.1739 17.844 68.3899 17.956C68.6059 18.068 68.9259 18.188 69.3499 18.316C69.8299 18.46 70.2419 18.604 70.5859 18.748C70.9379 18.884 71.2059 19.064 71.3899 19.288C71.5819 19.504 71.6779 19.804 71.6779 20.188C71.6779 20.796 71.4499 21.272 70.9939 21.616C70.5379 21.952 69.9379 22.12 69.1939 22.12ZM75.8333 13.24H77.1533V20.188C77.1533 20.508 77.2013 20.712 77.2973 20.8C77.3933 20.888 77.5133 20.932 77.6573 20.932C77.8173 20.932 77.9693 20.916 78.1133 20.884C78.2573 20.852 78.3773 20.812 78.4733 20.764L78.6653 21.808C78.4733 21.888 78.2453 21.956 77.9813 22.012C77.7173 22.068 77.4813 22.096 77.2733 22.096C76.8253 22.096 76.4733 21.972 76.2173 21.724C75.9613 21.468 75.8333 21.116 75.8333 20.668V13.24ZM79.4307 22V15.724H80.7507V22H79.4307ZM80.5467 14.824L79.6827 14.56L80.3667 13.24H81.6267L80.5467 14.824ZM87.9649 22H86.6449V18.484C86.6449 17.892 86.5489 17.464 86.3569 17.2C86.1729 16.928 85.8969 16.792 85.5289 16.792C85.2729 16.792 85.0169 16.856 84.7609 16.984C84.5129 17.112 84.2889 17.288 84.0889 17.512C83.8889 17.736 83.7449 17.988 83.6569 18.268V22H82.3369V15.724H83.5369V16.984C83.7769 16.568 84.1249 16.236 84.5809 15.988C85.0369 15.74 85.5409 15.616 86.0929 15.616C86.5889 15.616 86.9729 15.736 87.2449 15.976C87.5169 16.208 87.7049 16.516 87.8089 16.9C87.9129 17.284 87.9649 17.708 87.9649 18.172V22ZM92.3411 22.12C91.6931 22.12 91.1251 21.972 90.6371 21.676C90.1491 21.38 89.7691 20.988 89.4971 20.5C89.2251 20.004 89.0891 19.464 89.0891 18.88C89.0891 18.288 89.2251 17.744 89.4971 17.248C89.7691 16.752 90.1491 16.356 90.6371 16.06C91.1251 15.764 91.6971 15.616 92.3531 15.616C93.0091 15.616 93.5771 15.768 94.0571 16.072C94.5371 16.368 94.9051 16.76 95.1611 17.248C95.4251 17.736 95.5571 18.26 95.5571 18.82C95.5571 19.02 95.5451 19.18 95.5211 19.3H90.4931C90.5171 19.668 90.6171 19.992 90.7931 20.272C90.9771 20.544 91.2051 20.76 91.4771 20.92C91.7571 21.072 92.0611 21.148 92.3891 21.148C92.7411 21.148 93.0731 21.06 93.3851 20.884C93.6971 20.708 93.9131 20.476 94.0331 20.188L95.1611 20.512C94.9451 20.984 94.5851 21.372 94.0811 21.676C93.5851 21.972 93.0051 22.12 92.3411 22.12ZM90.4571 18.424H94.2491C94.2171 18.064 94.1131 17.748 93.9371 17.476C93.7611 17.196 93.5331 16.98 93.2531 16.828C92.9811 16.668 92.6771 16.588 92.3411 16.588C92.0131 16.588 91.7091 16.668 91.4291 16.828C91.1571 16.98 90.9331 17.196 90.7571 17.476C90.5811 17.748 90.4811 18.064 90.4571 18.424ZM96.1778 20.164C96.1778 19.764 96.2898 19.416 96.5138 19.12C96.7378 18.816 97.0498 18.584 97.4498 18.424C97.8578 18.256 98.3258 18.172 98.8538 18.172C99.1338 18.172 99.4178 18.196 99.7058 18.244C100.002 18.284 100.262 18.344 100.486 18.424V18.028C100.486 17.588 100.354 17.244 100.09 16.996C99.8258 16.748 99.4458 16.624 98.9498 16.624C98.6058 16.624 98.2738 16.684 97.9538 16.804C97.6338 16.924 97.3018 17.1 96.9578 17.332L96.5138 16.444C96.9298 16.172 97.3458 15.968 97.7618 15.832C98.1858 15.688 98.6298 15.616 99.0938 15.616C99.9338 15.616 100.594 15.84 101.074 16.288C101.562 16.728 101.806 17.356 101.806 18.172V20.512C101.806 20.664 101.83 20.772 101.878 20.836C101.934 20.9 102.026 20.936 102.154 20.944V22C102.034 22.024 101.926 22.04 101.83 22.048C101.734 22.056 101.654 22.06 101.59 22.06C101.302 22.06 101.086 21.992 100.942 21.856C100.806 21.712 100.726 21.552 100.702 21.376L100.666 21.016C100.394 21.368 100.046 21.64 99.6218 21.832C99.1978 22.024 98.7698 22.12 98.3378 22.12C97.9218 22.12 97.5498 22.036 97.2218 21.868C96.8938 21.692 96.6378 21.456 96.4538 21.16C96.2698 20.864 96.1778 20.532 96.1778 20.164ZM100.174 20.548C100.382 20.34 100.486 20.144 100.486 19.96V19.24C100.014 19.064 99.5338 18.976 99.0458 18.976C98.5658 18.976 98.1738 19.076 97.8698 19.276C97.5738 19.468 97.4258 19.728 97.4258 20.056C97.4258 20.328 97.5338 20.58 97.7498 20.812C97.9738 21.036 98.2938 21.148 98.7098 21.148C98.9898 21.148 99.2618 21.092 99.5258 20.98C99.7898 20.868 100.006 20.724 100.174 20.548ZM105.639 22.12C105.111 22.12 104.611 22.032 104.139 21.856C103.667 21.68 103.263 21.424 102.927 21.088L103.419 20.2C103.779 20.52 104.139 20.752 104.499 20.896C104.859 21.04 105.223 21.112 105.591 21.112C105.959 21.112 106.259 21.044 106.491 20.908C106.723 20.764 106.839 20.556 106.839 20.284C106.839 20.092 106.779 19.944 106.659 19.84C106.539 19.736 106.363 19.652 106.131 19.588C105.907 19.524 105.635 19.444 105.315 19.348C104.867 19.212 104.491 19.072 104.187 18.928C103.883 18.776 103.655 18.592 103.503 18.376C103.351 18.16 103.275 17.884 103.275 17.548C103.275 16.94 103.503 16.468 103.959 16.132C104.415 15.788 105.011 15.616 105.747 15.616C106.203 15.616 106.623 15.688 107.007 15.832C107.399 15.968 107.743 16.184 108.039 16.48L107.475 17.356C106.931 16.86 106.331 16.612 105.675 16.612C105.387 16.612 105.119 16.668 104.871 16.78C104.631 16.892 104.511 17.1 104.511 17.404C104.511 17.66 104.619 17.844 104.835 17.956C105.051 18.068 105.371 18.188 105.795 18.316C106.275 18.46 106.687 18.604 107.031 18.748C107.383 18.884 107.651 19.064 107.835 19.288C108.027 19.504 108.123 19.804 108.123 20.188C108.123 20.796 107.895 21.272 107.439 21.616C106.983 21.952 106.383 22.12 105.639 22.12Z" fill="white"/>
<rect x="35" y="29" width="81" height="26" rx="13" fill="white"/>
<path d="M61.3732 35.22H63.2812L68.2492 48H66.1252L64.7752 44.526H59.8432L58.5112 48H56.3692L61.3732 35.22ZM64.3792 43.032L62.3272 37.434L60.2032 43.032H64.3792ZM72.896 48.18C72.08 48.18 71.354 47.958 70.718 47.514C70.094 47.058 69.608 46.464 69.26 45.732C68.912 44.988 68.738 44.172 68.738 43.284C68.738 42.396 68.93 41.586 69.314 40.854C69.71 40.11 70.238 39.522 70.898 39.09C71.57 38.646 72.326 38.424 73.166 38.424C73.886 38.424 74.534 38.598 75.11 38.946C75.686 39.294 76.148 39.744 76.496 40.296V38.586H78.242V51.834H76.262V46.236C75.47 47.532 74.348 48.18 72.896 48.18ZM73.616 46.488C74.204 46.488 74.72 46.32 75.164 45.984C75.608 45.636 75.974 45.204 76.262 44.688V42.204C76.178 41.832 75.998 41.49 75.722 41.178C75.446 40.854 75.116 40.596 74.732 40.404C74.36 40.212 73.988 40.116 73.616 40.116C73.052 40.116 72.554 40.272 72.122 40.584C71.702 40.884 71.366 41.28 71.114 41.772C70.874 42.264 70.754 42.786 70.754 43.338C70.754 43.914 70.874 44.442 71.114 44.922C71.366 45.402 71.702 45.786 72.122 46.074C72.554 46.35 73.052 46.488 73.616 46.488ZM80.5267 44.346V38.586H82.5067V43.95C82.5067 45.642 83.1067 46.488 84.3067 46.488C84.8707 46.488 85.4047 46.314 85.9087 45.966C86.4127 45.606 86.8027 45.102 87.0787 44.454V38.586H89.0587V45.768C89.0587 45.996 89.1007 46.158 89.1847 46.254C89.2687 46.35 89.4067 46.404 89.5987 46.416V48C89.3947 48.036 89.2267 48.06 89.0947 48.072C88.9627 48.084 88.8367 48.09 88.7167 48.09C88.3567 48.09 88.0567 47.994 87.8167 47.802C87.5767 47.61 87.4387 47.352 87.4027 47.028L87.3667 46.092C86.9467 46.776 86.4007 47.298 85.7287 47.658C85.0567 48.006 84.3187 48.18 83.5147 48.18C82.5307 48.18 81.7867 47.856 81.2827 47.208C80.7787 46.56 80.5267 45.606 80.5267 44.346ZM91.5855 48V38.586H93.5655V48H91.5855ZM93.2595 37.236L91.9635 36.84L92.9895 34.86H94.8795L93.2595 37.236Z" fill="#FC518A"/>
</svg>
