<svg width="28" height="28" viewBox="0 0 28 28" fill="none" xmlns="http://www.w3.org/2000/svg">
<g clip-path="url(#clip0)">
<path d="M27.9996 14.0865C27.9996 6.30602 21.7311 -0.000976562 13.9996 -0.000976562C6.26459 0.000773438 -0.00390625 6.30602 -0.00390625 14.0882C-0.00390625 21.118 5.11659 26.9455 11.8086 28.0025V18.1587H8.25609V14.0882H11.8121V10.982C11.8121 7.45227 13.9033 5.50277 17.1006 5.50277C18.6336 5.50277 20.2348 5.77752 20.2348 5.77752V9.24252H18.4691C16.7313 9.24252 16.1888 10.3292 16.1888 11.444V14.0865H20.0703L19.4508 18.157H16.1871V28.0007C22.8791 26.9437 27.9996 21.1162 27.9996 14.0865Z" fill="#FF3C7D"/>
</g>
<defs>
<clipPath id="clip0">
<rect width="28" height="28" fill="white"/>
</clipPath>
</defs>
</svg>
