<svg width="261" height="70" viewBox="0 0 261 70" fill="none" xmlns="http://www.w3.org/2000/svg">
<path d="M64.9729 39.6836L60.9745 27.6886C60.7923 12.3897 48.2903 0 32.9492 0C17.4948 0 4.92188 12.5731 4.92188 28.0273C4.92188 32.6404 6.07428 37.2161 8.25439 41.2597C11.4408 47.1696 13.125 53.6859 13.125 60.1042V67.9492C13.125 69.0818 14.0432 70 15.1758 70H39.7852C40.6752 70 41.4637 69.4259 41.7368 68.5788L44.0128 61.5234H52.0898C55.4823 61.5234 58.2422 58.7635 58.2422 55.3711V50.5859L55.5078 48.5352L58.2422 46.4844V43.3804L63.4296 42.343C64.0064 42.2276 64.5058 41.8701 64.8011 41.3614C65.0963 40.8527 65.1589 40.2415 64.9729 39.6836V39.6836Z" fill="#FFDECF"/>
<path d="M39.7852 70C40.6752 70 41.4637 69.4259 41.7368 68.5788L44.0128 61.5234H52.0898C55.4822 61.5234 58.2422 58.7635 58.2422 55.3711V50.5859L55.5078 48.5352L58.2422 46.4844V43.3804L63.4296 42.343C64.0064 42.2276 64.5058 41.8701 64.8011 41.3614C65.0964 40.8525 65.1589 40.2415 64.9728 39.6836L60.9745 27.6886C60.7923 12.3897 48.2903 0 32.9492 0V70H39.7852Z" fill="#FFCDBE"/>
<path d="M35.6836 45.1172H27.4805C26.3479 45.1172 25.4297 44.199 25.4297 43.0664V36.9141H20.6445C16.4983 36.9141 13.125 33.5408 13.125 29.3945C13.125 26.4942 14.7431 23.9494 17.2278 22.6968C17.227 22.6506 17.2266 22.6047 17.2266 22.5586C17.2266 17.6585 21.2131 13.6719 26.1133 13.6719C26.1628 13.6719 26.2121 13.6723 26.2616 13.6732C27.5265 11.2163 30.1026 9.57031 32.9492 9.57031C35.7958 9.57031 38.3719 11.2163 39.6368 13.6732C39.6863 13.6723 39.7358 13.6719 39.7852 13.6719C44.6853 13.6719 48.6719 17.6585 48.6719 22.5586C48.6719 22.6047 48.6715 22.6506 48.6706 22.6967C51.1554 23.9494 52.7734 26.4942 52.7734 29.3945C52.7734 33.5408 49.4002 36.9141 45.2539 36.9141H39.7852C38.6544 36.9141 37.7344 37.834 37.7344 38.9648V43.0664C37.7344 44.199 36.8162 45.1172 35.6836 45.1172Z" fill="#FF8E8E"/>
<path d="M35.6836 45.1172C36.8162 45.1172 37.7344 44.199 37.7344 43.0664V38.9648C37.7344 37.834 38.6544 36.9141 39.7852 36.9141H45.2539C49.4002 36.9141 52.7734 33.5408 52.7734 29.3945C52.7734 26.4942 51.1554 23.9494 48.6706 22.6967C48.6715 22.6506 48.6719 22.6047 48.6719 22.5586C48.6719 17.6585 44.6853 13.6719 39.7852 13.6719C39.7357 13.6719 39.6863 13.6723 39.6368 13.6732C38.3719 11.2163 35.7958 9.57031 32.9492 9.57031V45.1172H35.6836Z" fill="#FF3C7D"/>
<path d="M48.6719 48.5352C48.6719 49.6677 49.5901 50.5859 50.7227 50.5859H58.2422V46.4844H50.7227C49.5901 46.4844 48.6719 47.4026 48.6719 48.5352Z" fill="#FFBEAA"/>
<path d="M78.4216 41.36C76.8376 41.36 75.3376 41.096 73.9216 40.568C72.5056 40.04 71.2936 39.272 70.2856 38.264L71.7616 35.6C72.8416 36.56 73.9216 37.256 75.0016 37.688C76.0816 38.12 77.1736 38.336 78.2776 38.336C79.3816 38.336 80.2816 38.132 80.9776 37.724C81.6736 37.292 82.0216 36.668 82.0216 35.852C82.0216 35.276 81.8416 34.832 81.4816 34.52C81.1216 34.208 80.5936 33.956 79.8976 33.764C79.2256 33.572 78.4096 33.332 77.4496 33.044C76.1056 32.636 74.9776 32.216 74.0656 31.784C73.1536 31.328 72.4696 30.776 72.0136 30.128C71.5576 29.48 71.3296 28.652 71.3296 27.644C71.3296 25.82 72.0136 24.404 73.3816 23.396C74.7496 22.364 76.5376 21.848 78.7456 21.848C80.1136 21.848 81.3736 22.064 82.5256 22.496C83.7016 22.904 84.7336 23.552 85.6216 24.44L83.9296 27.068C82.2976 25.58 80.4976 24.836 78.5296 24.836C77.6656 24.836 76.8616 25.004 76.1176 25.34C75.3976 25.676 75.0376 26.3 75.0376 27.212C75.0376 27.98 75.3616 28.532 76.0096 28.868C76.6576 29.204 77.6176 29.564 78.8896 29.948C80.3296 30.38 81.5656 30.812 82.5976 31.244C83.6536 31.652 84.4576 32.192 85.0096 32.864C85.5856 33.512 85.8736 34.412 85.8736 35.564C85.8736 37.388 85.1896 38.816 83.8216 39.848C82.4536 40.856 80.6536 41.36 78.4216 41.36ZM88.0412 35.492C88.0412 34.292 88.3772 33.248 89.0492 32.36C89.7212 31.448 90.6572 30.752 91.8572 30.272C93.0812 29.768 94.4852 29.516 96.0692 29.516C96.9092 29.516 97.7612 29.588 98.6252 29.732C99.5132 29.852 100.293 30.032 100.965 30.272V29.084C100.965 27.764 100.569 26.732 99.7772 25.988C98.9852 25.244 97.8452 24.872 96.3572 24.872C95.3252 24.872 94.3292 25.052 93.3692 25.412C92.4092 25.772 91.4132 26.3 90.3812 26.996L89.0492 24.332C90.2972 23.516 91.5452 22.904 92.7932 22.496C94.0652 22.064 95.3972 21.848 96.7892 21.848C99.3092 21.848 101.289 22.52 102.729 23.864C104.193 25.184 104.925 27.068 104.925 29.516V36.536C104.925 36.992 104.997 37.316 105.141 37.508C105.309 37.7 105.585 37.808 105.969 37.832V41C105.609 41.072 105.285 41.12 104.997 41.144C104.709 41.168 104.469 41.18 104.277 41.18C103.413 41.18 102.765 40.976 102.333 40.568C101.925 40.136 101.685 39.656 101.613 39.128L101.505 38.048C100.689 39.104 99.6452 39.92 98.3732 40.496C97.1012 41.072 95.8172 41.36 94.5212 41.36C93.2732 41.36 92.1572 41.108 91.1732 40.604C90.1892 40.076 89.4212 39.368 88.8692 38.48C88.3172 37.592 88.0412 36.596 88.0412 35.492ZM100.029 36.644C100.653 36.02 100.965 35.432 100.965 34.88V32.72C99.5492 32.192 98.1092 31.928 96.6452 31.928C95.2052 31.928 94.0292 32.228 93.1172 32.828C92.2292 33.404 91.7852 34.184 91.7852 35.168C91.7852 35.984 92.1092 36.74 92.7572 37.436C93.4292 38.108 94.3892 38.444 95.6372 38.444C96.4772 38.444 97.2932 38.276 98.0852 37.94C98.8772 37.604 99.5252 37.172 100.029 36.644ZM126.614 41H122.654V30.452C122.654 28.676 122.366 27.392 121.79 26.6C121.238 25.784 120.41 25.376 119.306 25.376C118.538 25.376 117.77 25.568 117.002 25.952C116.258 26.336 115.586 26.864 114.986 27.536C114.386 28.208 113.954 28.964 113.69 29.804V41H109.73V22.172H113.33V25.952C114.05 24.704 115.094 23.708 116.462 22.964C117.83 22.22 119.342 21.848 120.998 21.848C122.486 21.848 123.638 22.208 124.454 22.928C125.27 23.624 125.834 24.548 126.146 25.7C126.458 26.852 126.614 28.124 126.614 29.516V41ZM129.842 35.492C129.842 34.292 130.178 33.248 130.85 32.36C131.522 31.448 132.458 30.752 133.658 30.272C134.882 29.768 136.286 29.516 137.87 29.516C138.71 29.516 139.562 29.588 140.426 29.732C141.314 29.852 142.094 30.032 142.766 30.272V29.084C142.766 27.764 142.37 26.732 141.578 25.988C140.786 25.244 139.646 24.872 138.158 24.872C137.126 24.872 136.13 25.052 135.17 25.412C134.21 25.772 133.214 26.3 132.182 26.996L130.85 24.332C132.098 23.516 133.346 22.904 134.594 22.496C135.866 22.064 137.198 21.848 138.59 21.848C141.11 21.848 143.09 22.52 144.53 23.864C145.994 25.184 146.726 27.068 146.726 29.516V36.536C146.726 36.992 146.798 37.316 146.942 37.508C147.11 37.7 147.386 37.808 147.77 37.832V41C147.41 41.072 147.086 41.12 146.798 41.144C146.51 41.168 146.27 41.18 146.078 41.18C145.214 41.18 144.566 40.976 144.134 40.568C143.726 40.136 143.486 39.656 143.414 39.128L143.306 38.048C142.49 39.104 141.446 39.92 140.174 40.496C138.902 41.072 137.618 41.36 136.322 41.36C135.074 41.36 133.958 41.108 132.974 40.604C131.99 40.076 131.222 39.368 130.67 38.48C130.118 37.592 129.842 36.596 129.842 35.492ZM141.83 36.644C142.454 36.02 142.766 35.432 142.766 34.88V32.72C141.35 32.192 139.91 31.928 138.446 31.928C137.006 31.928 135.83 32.228 134.918 32.828C134.03 33.404 133.586 34.184 133.586 35.168C133.586 35.984 133.91 36.74 134.558 37.436C135.23 38.108 136.19 38.444 137.438 38.444C138.278 38.444 139.094 38.276 139.886 37.94C140.678 37.604 141.326 37.172 141.83 36.644ZM180.33 41H176.37V30.452C176.37 28.724 176.082 27.452 175.506 26.636C174.93 25.796 174.09 25.376 172.986 25.376C171.882 25.376 170.85 25.796 169.89 26.636C168.954 27.452 168.294 28.52 167.91 29.84V41H163.95V30.452C163.95 28.676 163.662 27.392 163.086 26.6C162.51 25.784 161.682 25.376 160.602 25.376C159.498 25.376 158.466 25.784 157.506 26.6C156.57 27.416 155.898 28.484 155.49 29.804V41H151.53V22.172H155.13V25.952C155.85 24.632 156.822 23.624 158.046 22.928C159.27 22.208 160.662 21.848 162.222 21.848C163.782 21.848 165.006 22.256 165.894 23.072C166.806 23.888 167.37 24.908 167.586 26.132C169.218 23.276 171.582 21.848 174.678 21.848C176.166 21.848 177.318 22.208 178.134 22.928C178.95 23.624 179.514 24.56 179.826 25.736C180.162 26.888 180.33 28.148 180.33 29.516V41ZM193.426 41.36C191.482 41.36 189.778 40.916 188.314 40.028C186.85 39.14 185.71 37.964 184.894 36.5C184.078 35.012 183.67 33.392 183.67 31.64C183.67 29.864 184.078 28.232 184.894 26.744C185.71 25.256 186.85 24.068 188.314 23.18C189.778 22.292 191.494 21.848 193.462 21.848C195.43 21.848 197.134 22.304 198.574 23.216C200.014 24.104 201.118 25.28 201.886 26.744C202.678 28.208 203.074 29.78 203.074 31.46C203.074 32.06 203.038 32.54 202.966 32.9H187.882C187.954 34.004 188.254 34.976 188.782 35.816C189.334 36.632 190.018 37.28 190.834 37.76C191.674 38.216 192.586 38.444 193.57 38.444C194.626 38.444 195.622 38.18 196.558 37.652C197.494 37.124 198.142 36.428 198.502 35.564L201.886 36.536C201.238 37.952 200.158 39.116 198.646 40.028C197.158 40.916 195.418 41.36 193.426 41.36ZM187.774 30.272H199.15C199.054 29.192 198.742 28.244 198.214 27.428C197.686 26.588 197.002 25.94 196.162 25.484C195.346 25.004 194.434 24.764 193.426 24.764C192.442 24.764 191.53 25.004 190.69 25.484C189.874 25.94 189.202 26.588 188.674 27.428C188.146 28.244 187.846 29.192 187.774 30.272ZM223.188 41H219.228V30.452C219.228 28.676 218.94 27.392 218.364 26.6C217.812 25.784 216.984 25.376 215.88 25.376C215.112 25.376 214.344 25.568 213.576 25.952C212.832 26.336 212.16 26.864 211.56 27.536C210.96 28.208 210.528 28.964 210.264 29.804V41H206.304V22.172H209.904V25.952C210.624 24.704 211.668 23.708 213.036 22.964C214.404 22.22 215.916 21.848 217.572 21.848C219.06 21.848 220.212 22.208 221.028 22.928C221.844 23.624 222.408 24.548 222.72 25.7C223.032 26.852 223.188 28.124 223.188 29.516V41ZM238.12 40.028C237.616 40.268 236.92 40.544 236.032 40.856C235.144 41.144 234.196 41.288 233.188 41.288C231.94 41.288 230.86 40.952 229.948 40.28C229.06 39.608 228.616 38.516 228.616 37.004V25.232H226.132V22.172H228.616V15.98H232.576V22.172H236.68V25.232H232.576V35.744C232.624 36.416 232.828 36.908 233.188 37.22C233.572 37.508 234.04 37.652 234.592 37.652C235.144 37.652 235.672 37.556 236.176 37.364C236.68 37.172 237.052 37.016 237.292 36.896L238.12 40.028ZM249.148 41.36C247.204 41.36 245.5 40.916 244.036 40.028C242.572 39.14 241.432 37.964 240.616 36.5C239.8 35.012 239.392 33.392 239.392 31.64C239.392 29.864 239.8 28.232 240.616 26.744C241.432 25.256 242.572 24.068 244.036 23.18C245.5 22.292 247.216 21.848 249.184 21.848C251.152 21.848 252.856 22.304 254.296 23.216C255.736 24.104 256.84 25.28 257.608 26.744C258.4 28.208 258.796 29.78 258.796 31.46C258.796 32.06 258.76 32.54 258.688 32.9H243.604C243.676 34.004 243.976 34.976 244.504 35.816C245.056 36.632 245.74 37.28 246.556 37.76C247.396 38.216 248.308 38.444 249.292 38.444C250.348 38.444 251.344 38.18 252.28 37.652C253.216 37.124 253.864 36.428 254.224 35.564L257.608 36.536C256.96 37.952 255.88 39.116 254.368 40.028C252.88 40.916 251.14 41.36 249.148 41.36ZM243.496 30.272H254.872C254.776 29.192 254.464 28.244 253.936 27.428C253.408 26.588 252.724 25.94 251.884 25.484C251.068 25.004 250.156 24.764 249.148 24.764C248.164 24.764 247.252 25.004 246.412 25.484C245.596 25.94 244.924 26.588 244.396 27.428C243.868 28.244 243.568 29.192 243.496 30.272Z" fill="#FF3C7D"/>
<rect x="70" y="46" width="189" height="16" fill="#FF3C7D"/>
<path d="M74.0828 50.19H74.9188L78.1088 58H77.0528L76.1288 55.712H72.8508L71.9378 58H70.8818L74.0828 50.19ZM75.9088 54.942L74.5008 51.334L73.0488 54.942H75.9088ZM86.1252 58V52.038L83.5512 56.625H82.9462L80.3612 52.038V58H79.3712V50.19H80.4162L83.2432 55.261L86.0812 50.19H87.1152V58H86.1252ZM91.5814 50.19H92.4174L95.6074 58H94.5514L93.6274 55.712H90.3494L89.4364 58H88.3804L91.5814 50.19ZM93.4074 54.942L91.9994 51.334L90.5474 54.942H93.4074ZM104.827 51.07H102.132V58H101.142V51.07H98.4472V50.19H104.827V51.07ZM109.395 58.055C108.772 58.055 108.247 57.9487 107.822 57.736C107.397 57.516 107.056 57.2227 106.799 56.856C106.542 56.482 106.355 56.0603 106.238 55.591C106.121 55.1217 106.062 54.6377 106.062 54.139V50.19H107.052V54.139C107.052 54.5203 107.089 54.8943 107.162 55.261C107.243 55.6203 107.371 55.943 107.547 56.229C107.723 56.515 107.961 56.7423 108.262 56.911C108.563 57.0797 108.937 57.164 109.384 57.164C109.839 57.164 110.216 57.0797 110.517 56.911C110.818 56.735 111.056 56.504 111.232 56.218C111.408 55.9247 111.533 55.5983 111.606 55.239C111.687 54.8797 111.727 54.513 111.727 54.139V50.19H112.717V54.139C112.717 54.667 112.655 55.1693 112.53 55.646C112.413 56.1153 112.222 56.5297 111.958 56.889C111.694 57.2483 111.349 57.5343 110.924 57.747C110.506 57.9523 109.996 58.055 109.395 58.055ZM124.452 58V52.038L121.878 56.625H121.273L118.688 52.038V58H117.698V50.19H118.743L121.57 55.261L124.408 50.19H125.442V58H124.452ZM132.834 57.12V58H127.532V50.19H132.735V51.07H128.522V53.6H132.185V54.425H128.522V57.12H132.834ZM135.402 52.016V58H134.412V50.19H135.248L140.022 56.295V50.201H141.012V58H140.11L135.402 52.016ZM148.729 51.07H146.034V58H145.044V51.07H142.349V50.19H148.729V51.07ZM155.376 57.12V58H150.074V50.19H155.277V51.07H151.064V53.6H154.727V54.425H151.064V57.12H155.376ZM156.833 58.891L157.053 57.912H156.723V56.768H157.636V57.912L157.306 58.891H156.833ZM164.529 50.19H165.365L168.555 58H167.499L166.575 55.712H163.297L162.384 58H161.328L164.529 50.19ZM166.355 54.942L164.947 51.334L163.495 54.942H166.355ZM176.571 58V52.038L173.997 56.625H173.392L170.807 52.038V58H169.817V50.19H170.862L173.689 55.261L176.527 50.19H177.561V58H176.571ZM182.028 50.19H182.864L186.054 58H184.998L184.074 55.712H180.796L179.883 58H178.827L182.028 50.19ZM183.854 54.942L182.446 51.334L180.994 54.942H183.854ZM194.561 51.829C194.378 51.6237 194.096 51.4367 193.714 51.268C193.333 51.0993 192.908 51.015 192.438 51.015C191.837 51.015 191.393 51.1287 191.107 51.356C190.821 51.5833 190.678 51.895 190.678 52.291C190.678 52.5697 190.752 52.7897 190.898 52.951C191.045 53.1123 191.269 53.2443 191.569 53.347C191.877 53.4497 192.266 53.556 192.735 53.666C193.278 53.7833 193.747 53.9263 194.143 54.095C194.539 54.2637 194.844 54.491 195.056 54.777C195.269 55.0557 195.375 55.4297 195.375 55.899C195.375 56.3977 195.251 56.8083 195.001 57.131C194.752 57.4537 194.411 57.692 193.978 57.846C193.553 58 193.073 58.077 192.537 58.077C191.32 58.077 190.26 57.7103 189.358 56.977L189.831 56.141C189.993 56.3023 190.209 56.4637 190.48 56.625C190.759 56.7863 191.074 56.922 191.426 57.032C191.786 57.1347 192.163 57.186 192.559 57.186C193.117 57.186 193.549 57.087 193.857 56.889C194.165 56.6837 194.319 56.3867 194.319 55.998C194.319 55.7047 194.231 55.47 194.055 55.294C193.887 55.118 193.634 54.9713 193.296 54.854C192.959 54.7367 192.548 54.6193 192.064 54.502C191.536 54.37 191.093 54.227 190.733 54.073C190.374 53.9117 190.103 53.7027 189.919 53.446C189.743 53.1893 189.655 52.8557 189.655 52.445C189.655 51.9463 189.776 51.5247 190.018 51.18C190.26 50.8353 190.594 50.575 191.019 50.399C191.445 50.223 191.925 50.135 192.46 50.135C192.981 50.135 193.454 50.2157 193.879 50.377C194.312 50.5383 194.693 50.7547 195.023 51.026L194.561 51.829ZM202.2 57.12V58H196.898V50.19H202.101V51.07H197.888V53.6H201.551V54.425H197.888V57.12H202.2ZM204.768 52.016V58H203.778V50.19H204.614L209.388 56.295V50.201H210.378V58H209.476L204.768 52.016ZM214.839 50.19H215.675L218.865 58H217.809L216.885 55.712H213.607L212.694 58H211.638L214.839 50.19ZM216.665 54.942L215.257 51.334L213.805 54.942H216.665ZM226.881 58V52.038L224.307 56.625H223.702L221.117 52.038V58H220.127V50.19H221.172L223.999 55.261L226.837 50.19H227.871V58H226.881ZM235.263 57.12V58H229.961V50.19H235.164V51.07H230.951V53.6H234.614V54.425H230.951V57.12H235.263ZM237.831 52.016V58H236.841V50.19H237.677L242.451 56.295V50.201H243.441V58H242.539L237.831 52.016ZM251.158 51.07H248.463V58H247.473V51.07H244.778V50.19H251.158V51.07ZM257.805 57.12V58H252.503V50.19H257.706V51.07H253.493V53.6H257.156V54.425H253.493V57.12H257.805Z" fill="white"/>
</svg>
