<svg width="29" height="29" viewBox="0 0 29 29" fill="none" xmlns="http://www.w3.org/2000/svg">
<path d="M16.8244 14.2579L13.5677 12.7383C13.2835 12.6063 13.0501 12.7542 13.0501 13.0689V15.9312C13.0501 16.2458 13.2835 16.3937 13.5677 16.2618L16.823 14.7422C17.1086 14.6088 17.1086 14.3913 16.8244 14.2579ZM14.5001 0.580017C6.81218 0.580017 0.580078 6.81212 0.580078 14.5C0.580078 22.1879 6.81218 28.42 14.5001 28.42C22.188 28.42 28.4201 22.1879 28.4201 14.5C28.4201 6.81212 22.188 0.580017 14.5001 0.580017ZM14.5001 20.155C7.37478 20.155 7.25008 19.5127 7.25008 14.5C7.25008 9.48737 7.37478 8.84502 14.5001 8.84502C21.6254 8.84502 21.7501 9.48737 21.7501 14.5C21.7501 19.5127 21.6254 20.155 14.5001 20.155Z" fill="#00A6F3"/>
</svg>
