<svg width="29" height="29" viewBox="0 0 29 29" fill="none" xmlns="http://www.w3.org/2000/svg">
<path d="M16.8244 14.258L13.5677 12.7384C13.2835 12.6064 13.0501 12.7543 13.0501 13.069V15.9313C13.0501 16.2459 13.2835 16.3938 13.5677 16.2619L16.823 14.7423C17.1086 14.6089 17.1086 14.3914 16.8244 14.258ZM14.5001 0.580078C6.81218 0.580078 0.580078 6.81218 0.580078 14.5001C0.580078 22.188 6.81218 28.4201 14.5001 28.4201C22.188 28.4201 28.4201 22.188 28.4201 14.5001C28.4201 6.81218 22.188 0.580078 14.5001 0.580078ZM14.5001 20.1551C7.37478 20.1551 7.25008 19.5128 7.25008 14.5001C7.25008 9.48743 7.37478 8.84508 14.5001 8.84508C21.6254 8.84508 21.7501 9.48743 21.7501 14.5001C21.7501 19.5128 21.6254 20.1551 14.5001 20.1551Z" fill="#FF3C7D"/>
</svg>
